<svg xmlns="http://www.w3.org/2000/svg" viewBox="0 0 512 512">
  <defs>
    <linearGradient id="bg" x1="0" y1="0" x2="1" y2="1">
      <stop offset="0%" stop-color="#0f172a"/>
      <stop offset="50%" stop-color="#1c1538"/>
      <stop offset="100%" stop-color="#0f766e"/>
    </linearGradient>
    <linearGradient id="glow" x1="0" y1="0" x2="1" y2="1">
      <stop offset="0%" stop-color="#fbbf24"/>
      <stop offset="100%" stop-color="#38bdf8"/>
    </linearGradient>
  </defs>
  <rect width="512" height="512" rx="112" fill="url(#bg)"/>
  <circle cx="140" cy="126" r="96" fill="#ffffff" opacity="0.08"/>
  <rect x="112" y="104" width="288" height="304" rx="40" fill="#ffffff" opacity="0.08"/>
  <path d="M176 136h48v240h-48zM224 136h48c78 0 128 43 128 120 0 82-50 120-128 120h-48v-44h48c50 0 80-23 80-76 0-49-30-76-80-76h-48z" fill="url(#glow)"/>
  <path d="M160 392c47-21 106-21 192 0" fill="none" stroke="#ffffff" stroke-opacity="0.2" stroke-width="18" stroke-linecap="round"/>
</svg>
