<svg xmlns="http://www.w3.org/2000/svg" viewBox="0 0 64 64">
  <defs>
    <linearGradient id="bg" x1="10" y1="6" x2="54" y2="58" gradientUnits="userSpaceOnUse">
      <stop offset="0" stop-color="#1b4d63"/>
      <stop offset="1" stop-color="#d46a2e"/>
    </linearGradient>
    <linearGradient id="ember" x1="24" y1="14" x2="42" y2="36" gradientUnits="userSpaceOnUse">
      <stop offset="0" stop-color="#ffd27a"/>
      <stop offset="1" stop-color="#ff7b38"/>
    </linearGradient>
  </defs>
  <rect x="4" y="4" width="56" height="56" rx="16" fill="url(#bg)"/>
  <path d="M22 18h6v28h-6zM36 18h6v28h-6z" fill="#f8f5ef"/>
  <path d="M28 30h8c5.5 0 10 4.5 10 10v6h-6v-5c0-2.8-2.2-5-5-5h-7z" fill="#f8f5ef"/>
  <path d="M33 14c4 4 5 7.4 3.8 10.4-1.2 3-3.9 4.8-8 5.6 1.1-2.5 1.2-4.8.5-6.8-.6-1.8-.2-3.8 1.1-5.3Z" fill="url(#ember)"/>
</svg>
